<?xml version="1.0" encoding="UTF-8" standalone="no"?>
<svg
   version="1.2"
   viewBox="0 0 155 240"
   width="155"
   height="240"
   id="svg1"
   sodipodi:docname="logo_app_raw.svg"
   inkscape:version="1.4 (86a8ad7, 2024-10-11)"
   xmlns:inkscape="http://www.inkscape.org/namespaces/inkscape"
   xmlns:sodipodi="http://sodipodi.sourceforge.net/DTD/sodipodi-0.dtd"
   xmlns="http://www.w3.org/2000/svg"
   xmlns:svg="http://www.w3.org/2000/svg">
  <defs
     id="defs1" />
  <sodipodi:namedview
     id="namedview1"
     pagecolor="#ffffff"
     bordercolor="#000000"
     borderopacity="0.25"
     inkscape:showpageshadow="2"
     inkscape:pageopacity="0.0"
     inkscape:pagecheckerboard="0"
     inkscape:deskcolor="#d1d1d1"
     inkscape:zoom="1.0150849"
     inkscape:cx="315.73713"
     inkscape:cy="248.74766"
     inkscape:window-width="1920"
     inkscape:window-height="974"
     inkscape:window-x="-11"
     inkscape:window-y="-11"
     inkscape:window-maximized="1"
     inkscape:current-layer="svg1">
    <inkscape:page
       x="0"
       y="0"
       width="155"
       height="240"
       id="page2"
       margin="0"
       bleed="0" />
  </sodipodi:namedview>
  <title
     id="title1">logo</title>
  <style
     id="style1">
		.s0 { fill: #ffe968 } 
		.s1 { fill: #95ceff } 
		.s2 { fill: #f58989 } 
		.s3 { fill: #b7bbbc } 
	</style>
  <path
     id="Shape 1 copy 3"
     class="s0"
     d="M 20,0 H 50 C 61,0 70,9 70,20 V 50 C 70,61 61,70 50,70 H 20 C 9,70 0,61 0,50 V 20 C 0,9 9,0 20,0 Z" />
  <path
     id="Shape 1 copy 2"
     class="s1"
     d="m 20,85 h 30 c 11,0 20,9 20,20 v 30 c 0,11 -9,20 -20,20 H 20 C 9,155 0,146 0,135 V 105 C 0,94 9,85 20,85 Z" />
  <path
     id="Shape 1 copy"
     class="s2"
     d="m 20,170 h 30 c 11,0 20,9 20,20 v 30 c 0,11 -9,20 -20,20 H 20 C 9,240 0,231 0,220 v -30 c 0,-11 9,-20 20,-20 z" />
  <path
     id="Shape 1"
     class="s3"
     d="m 105,170 h 30 c 11,0 20,9 20,20 v 30 c 0,11 -9,20 -20,20 h -30 c -11,0 -20,-9 -20,-20 v -30 c 0,-11 9,-20 20,-20 z" />
</svg>
